<?xml version="1.0" standalone="no"?>
<!DOCTYPE svg PUBLIC "-//W3C//DTD SVG 20010904//EN"
 "http://www.w3.org/TR/2001/REC-SVG-20010904/DTD/svg10.dtd">
<svg version="1.0" xmlns="http://www.w3.org/2000/svg"
 width="454.000000pt" height="127.000000pt" viewBox="0 0 454.000000 127.000000"
 preserveAspectRatio="xMidYMid meet">

<g transform="translate(0.000000,127.000000) scale(0.100000,-0.100000)"
fill="#000000" stroke="none">
<path d="M3096 1068 c-24 -200 -12 -323 36 -372 22 -21 32 -26 41 -17 8 8 7
14 -6 23 -19 15 -41 68 -31 77 3 3 30 5 60 5 65 -2 102 -24 111 -65 7 -37 27
-33 31 7 4 43 -31 72 -108 88 -37 7 -59 16 -52 20 20 12 72 109 72 134 0 36
-27 26 -40 -15 -11 -36 -77 -143 -88 -143 -5 0 3 256 9 279 2 8 -4 16 -13 19
-13 2 -18 -6 -22 -40z"/>
<path d="M2490 1018 c0 -64 -17 -128 -59 -230 -35 -84 -71 -143 -86 -143 -18
0 -16 63 3 157 40 187 38 228 -12 228 -35 0 -122 -81 -112 -105 6 -16 12 -14
49 23 24 23 48 42 55 42 17 0 15 -44 -8 -156 -29 -138 -30 -202 -6 -220 26
-19 30 -18 65 12 41 34 96 149 119 250 l19 79 11 -65 c29 -172 23 -282 -19
-381 -37 -85 -98 -120 -158 -91 -18 8 -36 23 -42 33 -11 21 -39 26 -39 8 0 -6
17 -29 39 -50 32 -32 46 -39 78 -39 74 0 138 63 171 169 25 83 22 318 -7 425
-31 118 -61 144 -61 54z"/>
<path d="M3464 991 c-37 -23 -104 -147 -104 -193 0 -32 39 -78 65 -78 42 0
115 62 134 113 18 47 1 51 -28 7 -32 -48 -76 -80 -109 -80 -21 0 -23 4 -20 38
3 33 6 37 32 37 70 2 131 152 70 172 -5 2 -23 -6 -40 -16z m22 -54 c-9 -37
-66 -88 -66 -59 0 4 14 30 32 58 30 47 46 48 34 1z"/>
<path d="M3755 998 c-2 -7 -9 -33 -16 -58 -18 -74 -68 -160 -91 -160 -12 0 -9
68 6 135 14 59 13 75 -4 75 -28 0 -57 -167 -39 -219 20 -58 70 -34 109 52 27
61 28 61 34 30 10 -43 39 -67 71 -59 32 8 35 39 3 34 -31 -4 -48 33 -48 109 0
57 -14 92 -25 61z"/>
<path d="M2015 983 c-3 -10 -9 -51 -12 -90 -6 -71 -7 -73 -32 -73 -59 0 -154
-147 -155 -240 -1 -40 2 -45 23 -48 28 -4 77 39 127 113 33 49 34 49 34 20 0
-35 34 -95 54 -95 7 0 19 7 26 15 10 12 8 16 -13 24 -22 9 -26 18 -33 67 -4
32 -4 103 0 158 12 157 12 159 0 163 -6 2 -15 -4 -19 -14z m-27 -220 c4 -28
-15 -63 -73 -135 -78 -99 -95 -69 -32 57 48 98 97 134 105 78z"/>
<path d="M1677 934 c-10 -10 -8 -208 3 -283 11 -78 36 -116 75 -116 16 0 30 6
33 13 2 7 -5 12 -17 12 -11 0 -27 11 -36 23 -17 27 -38 212 -33 297 3 49 -8
71 -25 54z"/>
<path d="M2704 905 c-14 -14 -29 -25 -33 -25 -18 0 -45 -85 -46 -142 0 -51 4
-63 24 -79 31 -25 43 -24 82 8 78 66 99 228 33 253 -33 13 -31 14 -60 -15z
m60 -31 c24 -64 -43 -208 -88 -191 -25 10 -20 89 9 146 13 27 30 51 37 54 24
10 36 7 42 -9z"/>
<path d="M2933 888 c-12 -13 -30 -39 -42 -58 l-21 -35 0 48 c0 33 -4 47 -14
47 -21 0 -26 -23 -26 -131 0 -78 3 -99 14 -99 8 0 21 22 31 54 18 58 73 161
81 153 3 -3 12 -34 20 -68 8 -35 22 -74 30 -86 16 -26 46 -30 63 -10 13 16 5
27 -20 27 -19 0 -20 4 -39 90 -12 50 -33 90 -50 90 -3 0 -16 -10 -27 -22z"/>
<path d="M1175 863 c-20 -19 -43 -71 -74 -166 -18 -53 -28 -68 -46 -73 -33 -8
-52 -31 -37 -46 8 -8 15 -8 27 2 20 17 19 12 -10 -66 -25 -67 -25 -84 0 -84 9
0 24 33 43 92 l28 93 44 16 c25 9 59 20 76 23 l32 7 20 -68 c29 -94 68 -133
100 -101 21 21 14 41 -12 34 -20 -5 -26 -1 -39 32 -31 79 -32 126 -1 85 10
-15 15 -16 26 -5 18 18 -2 46 -35 50 -23 3 -27 10 -41 76 -25 109 -59 142
-101 99z m60 -84 c22 -82 22 -84 -42 -102 -32 -8 -60 -14 -62 -11 -6 6 26 96
51 148 24 46 34 40 53 -35z"/>
<path d="M1560 865 c0 -8 7 -15 15 -15 8 0 15 7 15 15 0 8 -7 15 -15 15 -8 0
-15 -7 -15 -15z"/>
<path d="M1497 789 c-10 -6 -27 -25 -38 -42 -17 -29 -19 -30 -19 -9 0 21 -24
41 -36 29 -3 -3 0 -62 7 -131 9 -92 16 -126 26 -126 9 0 13 18 13 68 0 83 39
175 78 180 25 4 30 27 6 36 -19 7 -15 8 -37 -5z"/>
<path d="M1566 754 c-11 -29 -6 -144 8 -179 18 -41 51 -62 72 -44 20 16 18 29
-6 29 -32 0 -44 38 -43 128 1 61 -2 82 -12 82 -7 0 -16 -7 -19 -16z"/>
<path d="M757 709 c-10 -6 -27 -25 -38 -42 -17 -29 -19 -30 -19 -9 0 21 -24
41 -36 29 -3 -3 0 -62 7 -131 9 -92 16 -126 26 -126 9 0 13 18 13 68 0 83 39
175 78 180 25 4 30 27 6 36 -19 7 -15 8 -37 -5z"/>
<path d="M505 682 c-100 -61 -192 -302 -115 -302 22 0 60 35 95 89 l28 42 13
-29 c11 -26 31 -42 54 -42 11 0 40 29 40 41 0 13 -28 11 -32 -3 -3 -7 -10 -8
-17 -4 -10 6 -11 32 -7 104 4 63 2 100 -5 109 -15 17 -18 17 -54 -5z m2 -125
c-32 -69 -83 -137 -103 -137 -11 0 -14 6 -9 23 12 43 67 145 98 183 l32 39 3
-28 c2 -15 -8 -51 -21 -80z"/>
<path d="M154 646 c-3 -9 -4 -91 -2 -183 3 -135 7 -174 21 -200 18 -35 44 -53
65 -46 19 7 14 33 -8 33 -14 0 -22 11 -29 38 -11 36 -14 159 -4 135 2 -7 17
-13 32 -13 33 0 74 37 102 92 21 42 26 127 7 146 -29 29 -94 1 -133 -56 l-25
-37 2 49 c3 49 -15 76 -28 42z m164 -50 c2 -10 -3 -38 -13 -61 -25 -67 -85
-122 -85 -79 0 10 -6 14 -15 10 -21 -8 -19 17 4 62 40 79 100 116 109 68z"/>
</g>
</svg>
